<svg xmlns="http://www.w3.org/2000/svg" viewBox="0 0 240 180" role="img" aria-labelledby="title desc">
  <title id="title">小黄大王日报皇冠标志</title>
  <desc id="desc">写有黄字的卡通金色皇冠</desc>
  <defs>
    <linearGradient id="gold" x1="42" x2="198" y1="34" y2="154" gradientUnits="userSpaceOnUse">
      <stop stop-color="#fff4a8"/>
      <stop offset="0.42" stop-color="#e2a72a"/>
      <stop offset="0.72" stop-color="#c47d16"/>
      <stop offset="1" stop-color="#fff0b6"/>
    </linearGradient>
    <linearGradient id="ruby" x1="0" x2="1">
      <stop stop-color="#ff8790"/>
      <stop offset="1" stop-color="#9b2226"/>
    </linearGradient>
    <filter id="shadow" x="-20%" y="-20%" width="140%" height="140%">
      <feDropShadow dx="0" dy="6" stdDeviation="5" flood-color="#3b2b12" flood-opacity=".24"/>
    </filter>
  </defs>
  <path d="M26 154c14-22 27-50 34-89 20 29 38 42 60 46 22-4 40-17 60-46 7 39 20 67 34 89H26z" fill="#fff7d6" stroke="#1f1d1a" stroke-width="8" stroke-linejoin="round" filter="url(#shadow)"/>
  <path d="M36 145l15-85 42 45 27-70 27 70 42-45 15 85H36z" fill="url(#gold)" stroke="#1f1d1a" stroke-width="8" stroke-linejoin="round"/>
  <circle cx="51" cy="60" r="12" fill="url(#ruby)" stroke="#1f1d1a" stroke-width="6"/>
  <circle cx="120" cy="35" r="13" fill="#0f766e" stroke="#1f1d1a" stroke-width="6"/>
  <circle cx="189" cy="60" r="12" fill="url(#ruby)" stroke="#1f1d1a" stroke-width="6"/>
  <path d="M49 145h142" stroke="#1f1d1a" stroke-width="10" stroke-linecap="round"/>
  <path d="M59 129h122" stroke="#fff8df" stroke-width="8" stroke-linecap="round" opacity=".75"/>
  <text x="120" y="128" text-anchor="middle" font-family="Georgia, 'Songti SC', serif" font-size="66" font-weight="900" fill="#1f1d1a">黄</text>
</svg>
